<svg xmlns="http://www.w3.org/2000/svg" width="360" height="720" viewBox="0 0 360 720">
  <g fill="none" stroke="#8b8fd6" stroke-width="1.8" opacity="0.3" stroke-linecap="round">
    <path d="M20 -20 C 54 140 -6 300 22 460 C 42 570 6 650 20 740"/>
    <path d="M74 -20 C 112 130 50 290 80 450 C 100 560 68 660 74 740"/>
    <path d="M132 -20 C 168 150 104 310 134 470 C 154 580 122 650 132 740"/>
    <path d="M196 -20 C 232 140 168 300 198 460 C 218 570 186 660 196 740"/>
    <path d="M256 -20 C 294 150 226 310 258 470 C 278 580 244 650 256 740"/>
    <path d="M316 -20 C 350 140 288 300 318 460 C 336 570 304 660 316 740"/>
  </g>
  <g fill="none" stroke="#a794d9" stroke-width="1.4" opacity="0.22" stroke-linecap="round">
    <path d="M46 -20 C 78 160 22 320 50 480 C 68 580 38 650 46 740"/>
    <path d="M104 -20 C 138 140 78 300 106 460 C 124 570 96 650 104 740"/>
    <path d="M164 -20 C 198 160 138 320 166 480 C 184 580 156 650 164 740"/>
    <path d="M226 -20 C 260 140 200 300 228 460 C 246 570 218 650 226 740"/>
    <path d="M286 -20 C 320 160 260 320 288 480 C 306 580 278 650 286 740"/>
  </g>
  <g fill="none" stroke="#c07aa8" stroke-width="1.1" opacity="0.15" stroke-linecap="round">
    <path d="M10 -20 C 40 180 -10 340 14 490 C 30 590 2 650 10 740"/>
    <path d="M148 -20 C 180 170 122 330 150 490 C 168 590 140 650 148 740"/>
    <path d="M300 -20 C 332 170 274 330 302 490 C 318 590 292 650 300 740"/>
  </g>
</svg>
