<svg id="Capa_1" data-name="Capa 1" xmlns="http://www.w3.org/2000/svg" viewBox="0 0 1080 260"><path d="M114.89,211.47H89.1v9.93h23c3.23,0,5.43.56,6.64,1.73s1.77,3.36,1.77,6.61v4c0,3.27-.57,5.49-1.72,6.64s-3.42,1.75-6.69,1.75H90.78c-3.29,0-5.54-.57-6.74-1.76s-1.78-3.38-1.78-6.63v-1l5.64-1.28v5.72H115V226.5H92.13c-3.29,0-5.53-.56-6.7-1.76s-1.77-3.37-1.77-6.61V215c0-3.23.6-5.45,1.77-6.61s3.41-1.77,6.7-1.77h19.42c3.22,0,5.46.56,6.68,1.71s1.85,3.19,1.85,6.08v.73l-5.19,1.45Z"/><path d="M153,242.13l19.87-35.48h6.5l20.25,35.48h-6.71l-4.63-8.74H163.59l-4.65,8.74Zm13.22-13.26h19.58l-9.82-18.18Z"/><polygon points="232.5 242.13 232.5 206.65 238.59 206.65 238.59 237.21 266.15 237.21 266.15 242.13 232.5 242.13"/><path d="M305.79,206.65v30.56h26.54V206.65h6v27.11c0,3.25-.62,5.46-1.77,6.62s-3.43,1.75-6.7,1.75H308.28c-3.35,0-5.57-.57-6.76-1.77s-1.81-3.4-1.81-6.6V206.65Z"/><path d="M398.49,206.65a45.94,45.94,0,0,1,8.36.65,16.51,16.51,0,0,1,5.63,2.1,15.8,15.8,0,0,1,5.52,6.17,18.83,18.83,0,0,1,2,8.6,20.08,20.08,0,0,1-2,9,15.24,15.24,0,0,1-5.54,6.26,16.11,16.11,0,0,1-5.6,2.07,42.66,42.66,0,0,1-8.39.68H378.44V206.65Zm-.86,4.82h-13.1v25.74h13.1q8.83,0,12.51-3t3.64-10q0-6.76-3.7-9.73c-2.5-2-6.65-3-12.45-3"/><path d="M582.55,211.47H557.28v25.74h25.27v-8.92l6.11,1.25v4.2c0,3.27-.62,5.49-1.77,6.64s-3.42,1.75-6.73,1.75h-20.4c-3.29,0-5.55-.57-6.75-1.76s-1.8-3.38-1.8-6.63V215c0-3.23.61-5.45,1.8-6.61s3.46-1.77,6.75-1.77h20.4c3.31,0,5.56.57,6.73,1.74s1.77,3.37,1.77,6.64v3.37l-6.11,1.11Z"/><path d="M618.68,242.13l19.86-35.48h6.53l20.22,35.48h-6.66L654,233.39H629.34l-4.66,8.74Zm13.18-13.26h19.63l-9.85-18.18Z"/><path d="M698.26,242.12V206.65h29.35c2.7,0,4.67.53,5.87,1.63s1.8,2.83,1.8,5.23v7.93c0,2.4-.58,4.13-1.8,5.21s-3.17,1.64-5.87,1.64H704.32v13.83Zm26.93-30.9H704.32v12.41h20.87a4.4,4.4,0,0,0,3.11-.85,4,4,0,0,0,.84-2.87V215a4.17,4.17,0,0,0-.84-2.9,4.55,4.55,0,0,0-3.11-.85"/><rect x="771.29" y="206.65" width="6.11" height="35.49"/><polygon points="817.42 242.13 817.42 206.65 823.54 206.65 823.54 237.21 851.12 237.21 851.12 242.13 817.42 242.13"/><path d="M877.58,242.13l19.85-35.48H904l20.22,35.48h-6.68l-4.66-8.74H888.2l-4.65,8.74Zm13.17-13.26h19.62l-9.83-18.18Z"/><path d="M957.11,242.12V206.65h29.37c2.73,0,4.68.53,5.88,1.63s1.83,2.83,1.83,5.23v7.93c0,2.4-.62,4.13-1.83,5.21s-3.15,1.64-5.88,1.64h-5.35l16.61,13.83h-9l-14.77-13.83H963.22v13.83Zm27-30.9H963.22v12.47h20.89c1.48,0,2.53-.24,3.06-.8a3.79,3.79,0,0,0,.83-2.81v-5.19a3.89,3.89,0,0,0-.84-2.84,4.37,4.37,0,0,0-3-.83"/><path d="M165.27,120.82c0,11-4.24,19-13,24.62-9,5.78-22.61,8.72-40.59,8.72H67.64v15h38.92c26.16,0,46.12-4.11,59.32-12.21,13.79-8.5,20.79-21.38,20.79-38.3V13.87h-21.4Z"/><path d="M377.25,86.23c-8.17-8.35-18.64-14.83-31.1-19.28a122.34,122.34,0,0,0-40.95-6.63c-23.76,0-43.79,5.14-59.53,15.28C229.6,86,221.46,99.53,221.46,115.72a40.91,40.91,0,0,0,6.28,21.66c4.11,6.6,10.12,12.59,17.88,17.8a88.34,88.34,0,0,0,27.06,11.88,133.29,133.29,0,0,0,33.18,4,130.47,130.47,0,0,0,30.34-3.42A103.24,103.24,0,0,0,362.94,157l1.62-.93V136.51l-5.1,3.59a88.6,88.6,0,0,1-24.8,12.23,99.94,99.94,0,0,1-28.8,4c-18.52,0-34-4-46-11.93-11.64-7.74-17.31-17.19-17.31-28.9,0-11.55,5.77-21,17.64-28.79,12.14-8,27.52-12,45.7-12,19.36,0,34.91,4.29,46.24,12.77,11.3,8.3,16.79,19.21,16.79,33.36v48.32H389.3v-47.7a63.75,63.75,0,0,0-2.82-19.94A40.45,40.45,0,0,0,377.25,86.23Z"/><rect x="432.88" y="13.87" width="20.4" height="155.28"/><path d="M635.51,110.63c0,14.14-5.5,25.09-16.79,33.47s-26.9,12.66-46.23,12.66c-18.21,0-33.58-4-45.72-12-11.87-7.81-17.64-17.23-17.64-28.79S514.81,94.78,526.45,87c12-7.92,27.51-11.94,46-11.94a99.5,99.5,0,0,1,28.78,4,84.81,84.81,0,0,1,24.8,12.22l5.1,3.63V75.26l-1.65-.92a108.48,108.48,0,0,0-26.88-10.49,126.16,126.16,0,0,0-30.15-3.53,130.1,130.1,0,0,0-33.19,4.05,89.63,89.63,0,0,0-27,11.78c-7.79,5.23-13.8,11.27-17.88,17.91a40.6,40.6,0,0,0-6.3,21.66c0,16.13,8.15,29.6,24.23,40C528,165.88,548.05,171,571.83,171a122.47,122.47,0,0,0,40.93-6.63c12.48-4.45,22.94-10.89,31.12-19.2A40.12,40.12,0,0,0,653.1,130a65,65,0,0,0,2.8-20.14v-96H635.51Z"/><polygon points="812.38 13.87 779.91 13.87 737.87 56.81 760 56.81 812.38 13.87"/><path d="M813.73,125.07c0,9.34-4.21,16.73-12.86,22.58-8.93,6-20.78,9.11-35.22,9.11s-26.51-3.07-35.53-9.1c-8.67-5.93-12.87-13.31-12.87-22.59V62.2H697.17v60.06c0,15.06,6.44,27.14,19.16,35.92,12.34,8.51,28.94,12.84,49.32,12.84s37-4.33,49.32-12.84c12.72-8.78,19.17-20.86,19.17-35.92V62.2H813.73Z"/><path d="M993.2,73.27c-12.33-8.59-28.93-12.95-49.33-12.95s-37,4.36-49.32,12.94C881.83,82,875.4,94.09,875.4,109.07v60.07h20.07V106.36c0-9.33,4.2-16.71,12.84-22.56,9.05-6,21-9.11,35.56-9.11s26.46,3.06,35.4,9.11c8.75,5.86,13,13.24,13,22.56v62.78h20.08V109.07C1012.35,94.08,1005.9,82,993.2,73.27Z"/></svg>
